<svg id="Calque_1" data-name="Calque 1" xmlns="http://www.w3.org/2000/svg" xmlns:xlink="http://www.w3.org/1999/xlink" viewBox="0 0 293.17 242.11"><defs><style>.cls-1{fill:#fff;}.cls-10,.cls-11,.cls-12,.cls-13,.cls-2,.cls-3,.cls-4,.cls-5,.cls-6,.cls-7,.cls-8,.cls-9{fill-rule:evenodd;}.cls-2{fill:url(#Dégradé_sans_nom_10);}.cls-3{fill:url(#Dégradé_sans_nom_10-2);}.cls-4{fill:url(#Dégradé_sans_nom_10-3);}.cls-5{fill:url(#Dégradé_sans_nom_10-4);}.cls-6{fill:url(#Dégradé_sans_nom_10-5);}.cls-7{fill:url(#Dégradé_sans_nom_10-6);}.cls-8{fill:url(#Dégradé_sans_nom_10-7);}.cls-9{fill:url(#Dégradé_sans_nom_10-8);}.cls-10{fill:url(#Dégradé_sans_nom_10-9);}.cls-11{fill:url(#Dégradé_sans_nom_10-10);}.cls-12{fill:#b6191d;}.cls-13{fill:#253368;}</style><linearGradient id="Dégradé_sans_nom_10" x1="383.28" y1="568.62" x2="384.24" y2="568.47" gradientTransform="matrix(93.86, 0, 0, -124.7, -35849.56, 70970.16)" gradientUnits="userSpaceOnUse"><stop offset="0" stop-color="#f8c479"/><stop offset="0.54" stop-color="#a76815"/><stop offset="1" stop-color="#edb668"/></linearGradient><linearGradient id="Dégradé_sans_nom_10-2" x1="370.52" y1="566.4" x2="374.28" y2="566.1" gradientTransform="matrix(23.83, 0, 0, -62.43, -8702.63, 35413.84)" xlink:href="#Dégradé_sans_nom_10"/><linearGradient id="Dégradé_sans_nom_10-3" x1="373.02" y1="566.77" x2="375.99" y2="566.48" gradientTransform="matrix(30.09, 0, 0, -66.39, -11095.75, 37678.22)" xlink:href="#Dégradé_sans_nom_10"/><linearGradient id="Dégradé_sans_nom_10-4" x1="369.86" y1="566.79" x2="373.61" y2="566.51" gradientTransform="matrix(23.9, 0, 0, -67.65, -8712.76, 38398.17)" xlink:href="#Dégradé_sans_nom_10"/><linearGradient id="Dégradé_sans_nom_10-5" x1="370.85" y1="564.2" x2="374.31" y2="563.73" gradientTransform="matrix(25.9, 0, 0, -40.67, -9495.65, 23090.08)" xlink:href="#Dégradé_sans_nom_10"/><linearGradient id="Dégradé_sans_nom_10-6" x1="361.11" y1="537.09" x2="366.9" y2="534.75" gradientTransform="matrix(15.47, 0, 0, -8.1, -5475.33, 4476.91)" xlink:href="#Dégradé_sans_nom_10"/><linearGradient id="Dégradé_sans_nom_10-7" x1="357.73" y1="530.96" x2="363.93" y2="528.14" gradientTransform="matrix(14.43, 0, 0, -6.76, -5051.94, 3714.86)" xlink:href="#Dégradé_sans_nom_10"/><linearGradient id="Dégradé_sans_nom_10-8" x1="357.5" y1="534.62" x2="363.92" y2="532.1" gradientTransform="matrix(13.96, 0, 0, -7.52, -4884.83, 4172.21)" xlink:href="#Dégradé_sans_nom_10"/><linearGradient id="Dégradé_sans_nom_10-9" x1="322.21" y1="487.3" x2="336.37" y2="481.51" gradientTransform="matrix(6.33, 0, 0, -3.28, -1928.04, 1730.05)" xlink:href="#Dégradé_sans_nom_10"/><linearGradient id="Dégradé_sans_nom_10-10" x1="302.56" y1="486.93" x2="320.09" y2="481.01" gradientTransform="matrix(5.11, 0, 0, -3.21, -1436.98, 1698.15)" xlink:href="#Dégradé_sans_nom_10"/></defs><g id="Groupe_688" data-name="Groupe 688"><g id="Groupe_679" data-name="Groupe 679"><path id="Tracé_2870" data-name="Tracé 2870" class="cls-1" d="M19.08,225.24a.38.38,0,0,0-.17-.34,1.2,1.2,0,0,0-.59-.11H11.77v2.5h4a2,2,0,0,0,.63-.08.33.33,0,0,0,.22-.36h.36v2.9h-.36c0-.31-.07-.51-.22-.6a1.37,1.37,0,0,0-.63-.13h-4v3.92a.29.29,0,0,0,.18.27.8.8,0,0,0,.43.09v.37H9v-.37c.35,0,.52-.12.52-.36v-9.17c0-.24-.17-.36-.52-.36v-.36h9.37a1,1,0,0,0,.59-.14.4.4,0,0,0,.17-.35h.37v2.67Z"/><path id="Tracé_2871" data-name="Tracé 2871" class="cls-1" d="M28.47,223.06a8,8,0,0,1,1.76.17,4,4,0,0,1,1.35.54,2.54,2.54,0,0,1,.87,1,3.37,3.37,0,0,1,.3,1.47,2.58,2.58,0,0,1-.79,2,4.22,4.22,0,0,1-2.12.95L32.52,233a.55.55,0,0,0,.34.24,1.34,1.34,0,0,0,.35,0v.37H29.44v-.37a.81.81,0,0,0,.31-.06c.09,0,.13-.09.13-.16a.4.4,0,0,0-.08-.23c-.05-.09-.13-.2-.24-.36l-2.22-3.14H24.45V233a.34.34,0,0,0,.13.27,1,1,0,0,0,.48.09v.36H21.57v-.36c.39,0,.58-.12.58-.36v-9.17c0-.24-.19-.36-.58-.36v-.37Zm-.53,4.72a5.54,5.54,0,0,0,1.22-.11,2.3,2.3,0,0,0,.76-.31,1.09,1.09,0,0,0,.4-.48,1.45,1.45,0,0,0,0-1.19,1.16,1.16,0,0,0-.4-.48,2.3,2.3,0,0,0-.76-.31,5.54,5.54,0,0,0-1.22-.11H24.45v3Z"/><path id="Tracé_2872" data-name="Tracé 2872" class="cls-1" d="M35,233.31a.57.57,0,0,0,.41-.26,5.09,5.09,0,0,0,.3-.5l3.73-7.86c.09-.17.18-.33.25-.48a.76.76,0,0,0,.11-.38.28.28,0,0,0-.14-.29,1.34,1.34,0,0,0-.3-.12v-.36h3.42v.36l-.29.11a.32.32,0,0,0-.14.3.88.88,0,0,0,.07.32,4.49,4.49,0,0,0,.22.42l4.2,8.22a.65.65,0,0,0,.27.32,3.6,3.6,0,0,0,.39.2v.37H43.89v-.37a.36.36,0,0,0,.2-.06.18.18,0,0,0,.12-.18,1.21,1.21,0,0,0-.16-.52l-.76-1.5H38.36l-.73,1.43a1.82,1.82,0,0,0-.2.61c0,.14.13.22.39.22v.36H35Zm7.61-3.75-1.7-3.76L39,229.56Z"/><path id="Tracé_2873" data-name="Tracé 2873" class="cls-1" d="M49.82,233.31q.39,0,.39-.36v-9.17q0-.36-.39-.36v-.37h3.45v.37c-.1,0-.16.07-.16.2s.14.29.4.56l5.8,6v-6.42c0-.24-.18-.36-.53-.36v-.37h3v.37c-.26,0-.38.12-.38.36V233c0,.24.13.36.38.36v.36H58.56v-.36c.17,0,.26-.06.26-.18s-.11-.25-.32-.47l-6.16-6.42v6.7c0,.24.16.36.47.36v.37h-3Z"/><path id="Tracé_2874" data-name="Tracé 2874" class="cls-1" d="M76.64,232.22h-.22a2,2,0,0,0-.58.24c-.3.16-.69.35-1.15.55a9.54,9.54,0,0,1-1.59.52,7.21,7.21,0,0,1-1.85.22,8.82,8.82,0,0,1-2.45-.32,6.21,6.21,0,0,1-2.07-1,4.91,4.91,0,0,1-1.42-1.68,5.13,5.13,0,0,1,1.42-6.42,6.38,6.38,0,0,1,2.07-1,8.48,8.48,0,0,1,2.45-.34,8.93,8.93,0,0,1,1.86.16,14.82,14.82,0,0,1,1.47.34,9.66,9.66,0,0,1,1,.34A1.82,1.82,0,0,0,76,224a.22.22,0,0,0,.17-.1l.11-.17.3.25L75,226.37l-.2-.14s0-.09,0-.13,0-.08,0-.14a.77.77,0,0,0-.4-.45,4.33,4.33,0,0,0-.9-.42,11.06,11.06,0,0,0-1.13-.3,6.73,6.73,0,0,0-1.1-.12,5.33,5.33,0,0,0-1.63.25,3.87,3.87,0,0,0-1.35.7,3.51,3.51,0,0,0-.92,1.14,3.63,3.63,0,0,0,0,3.09,3.51,3.51,0,0,0,.92,1.14,4.07,4.07,0,0,0,1.35.71,5.64,5.64,0,0,0,1.63.24,6.14,6.14,0,0,0,1.35-.15,7.37,7.37,0,0,0,1.29-.39,4,4,0,0,0,1-.52c.26-.2.4-.38.4-.56a.43.43,0,0,0-.08-.24l.28-.16,1.33,2.14Z"/><path id="Tracé_2875" data-name="Tracé 2875" class="cls-1" d="M90,225.24a.38.38,0,0,0-.18-.34,1.11,1.11,0,0,0-.6-.11H82.67v2.5h4a1.53,1.53,0,0,0,.63-.11c.14-.07.22-.27.22-.58h.36v3.15h-.36a.68.68,0,0,0-.22-.6,1.37,1.37,0,0,0-.63-.13h-4v2.79h6.75a.78.78,0,0,0,.49-.14.43.43,0,0,0,.19-.39h.37v2.77H90.1c0-.2-.06-.32-.19-.34a2,2,0,0,0-.49,0H80v-.37a.38.38,0,0,0,.25-.09.32.32,0,0,0,.11-.27v-9.17a.32.32,0,0,0-.11-.27.38.38,0,0,0-.25-.09v-.36h9.2a1,1,0,0,0,.6-.13.44.44,0,0,0,.18-.36h.36v2.67Z"/><path id="Tracé_2876" data-name="Tracé 2876" class="cls-1" d="M118,233.31c.35,0,.53-.12.53-.36v-9.17c0-.24-.18-.36-.53-.36v-.37h3.35v.37c-.35,0-.52.12-.52.36V233c0,.24.17.36.52.36v.36H118Z"/><path id="Tracé_2877" data-name="Tracé 2877" class="cls-1" d="M124.92,233.31q.39,0,.39-.36v-9.17q0-.36-.39-.36v-.37h3.46v.37c-.11,0-.17.07-.17.2s.14.3.4.56l5.8,6v-6.42c0-.24-.18-.36-.53-.36v-.37h3.05v.37c-.25,0-.38.12-.38.36V233c0,.24.13.36.38.36v.36h-3.27v-.36c.18,0,.26-.06.26-.18s-.1-.25-.32-.47l-6.16-6.42v6.7c0,.24.16.36.47.36v.37h-3Z"/><path id="Tracé_2878" data-name="Tracé 2878" class="cls-1" d="M146.1,233q0,.36.45.36v.36h-3.11v-.36a.38.38,0,0,0,.25-.09.32.32,0,0,0,.11-.27v-8h-3.33a.68.68,0,0,0-.35.1.4.4,0,0,0-.17.39h-.37v-2.83H140a.39.39,0,0,0,.17.38.6.6,0,0,0,.35.1h9a.65.65,0,0,0,.36-.1.4.4,0,0,0,.17-.38h.36v2.82H150a.41.41,0,0,0-.17-.38.75.75,0,0,0-.36-.1H146.1Z"/><path id="Tracé_2879" data-name="Tracé 2879" class="cls-1" d="M162.84,225.24a.39.39,0,0,0-.18-.34,1.11,1.11,0,0,0-.6-.11h-6.53v2.5h4a1.48,1.48,0,0,0,.62-.11c.15-.07.22-.27.22-.58h.37v3.15h-.37c0-.31-.07-.5-.22-.6a1.33,1.33,0,0,0-.62-.13h-4v2.79h6.74a.79.79,0,0,0,.5-.14.43.43,0,0,0,.19-.39h.37v2.77H163c0-.2-.06-.32-.19-.34a2.07,2.07,0,0,0-.5,0h-9.4v-.37a.38.38,0,0,0,.25-.09.32.32,0,0,0,.11-.27v-9.17a.32.32,0,0,0-.11-.27.38.38,0,0,0-.25-.09v-.36h9.2a1,1,0,0,0,.6-.13.43.43,0,0,0,.17-.36h.37v2.67Z"/><path id="Tracé_2880" data-name="Tracé 2880" class="cls-1" d="M173.11,223.06a8,8,0,0,1,1.76.17,3.87,3.87,0,0,1,1.35.54,2.54,2.54,0,0,1,.87,1,3.23,3.23,0,0,1,.3,1.47,2.58,2.58,0,0,1-.79,2,4.18,4.18,0,0,1-2.12.95l2.69,3.84a.51.51,0,0,0,.33.24,1.45,1.45,0,0,0,.35,0v.37h-3.77v-.37a.81.81,0,0,0,.31-.06c.09,0,.13-.09.13-.16a.4.4,0,0,0-.08-.23c-.05-.09-.13-.2-.24-.36L172,229.36h-2.89V233a.34.34,0,0,0,.13.27,1,1,0,0,0,.48.09v.36h-3.49v-.36c.39,0,.58-.12.58-.36v-9.17c0-.24-.19-.36-.58-.36v-.37Zm-.52,4.72a5.45,5.45,0,0,0,1.21-.11,2.44,2.44,0,0,0,.77-.31,1.24,1.24,0,0,0,.4-.48,1.54,1.54,0,0,0,0-1.19,1.24,1.24,0,0,0-.4-.48,2.44,2.44,0,0,0-.77-.31,5.45,5.45,0,0,0-1.21-.11H169.1v3Z"/><path id="Tracé_2881" data-name="Tracé 2881" class="cls-1" d="M181,233.31c.25,0,.38-.12.38-.36v-9.17c0-.24-.13-.36-.38-.36v-.37h3.45v.37c-.11,0-.16.07-.16.2s.13.29.4.56l5.79,6v-6.42c0-.24-.17-.36-.52-.36v-.37h3v.37c-.25,0-.38.12-.38.36V233c0,.24.13.36.38.36v.36h-3.27v-.36q.27,0,.27-.18c0-.1-.11-.25-.33-.47l-6.15-6.42v6.7c0,.24.15.36.46.36v.37h-3Z"/><path id="Tracé_2882" data-name="Tracé 2882" class="cls-1" d="M195.3,233.31a.57.57,0,0,0,.41-.26,5.09,5.09,0,0,0,.3-.5l3.73-7.86c.1-.17.18-.33.25-.48a.89.89,0,0,0,.12-.38.31.31,0,0,0-.15-.29,1.34,1.34,0,0,0-.3-.12v-.36h3.41v.36l-.28.11a.3.3,0,0,0-.14.3.71.71,0,0,0,.07.32q.08.16.21.42l4.2,8.22a.71.71,0,0,0,.27.32,3,3,0,0,0,.4.2v.37h-3.56v-.37a.34.34,0,0,0,.2-.06.19.19,0,0,0,.13-.18,1.23,1.23,0,0,0-.17-.52l-.76-1.5h-4.93l-.73,1.43a1.82,1.82,0,0,0-.2.61c0,.14.13.22.39.22v.36H195.3Zm7.61-3.75-1.7-3.76-1.9,3.76Z"/><path id="Tracé_2883" data-name="Tracé 2883" class="cls-1" d="M215.65,233c0,.24.15.36.44.36v.36H213v-.36a.38.38,0,0,0,.25-.09.36.36,0,0,0,.12-.27v-8H210a.74.74,0,0,0-.35.1.42.42,0,0,0-.17.39h-.36v-2.83h.36a.4.4,0,0,0,.17.38.64.64,0,0,0,.35.1h9a.62.62,0,0,0,.35-.1.38.38,0,0,0,.17-.38h.37v2.82h-.37a.39.39,0,0,0-.17-.38.71.71,0,0,0-.35-.1h-3.33Z"/><path id="Tracé_2884" data-name="Tracé 2884" class="cls-1" d="M222.35,233.31c.35,0,.52-.12.52-.36v-9.17c0-.24-.17-.36-.52-.36v-.37h3.35v.37c-.35,0-.52.12-.52.36V233c0,.24.17.36.52.36v.36h-3.35Z"/><path id="Tracé_2885" data-name="Tracé 2885" class="cls-1" d="M235.25,222.93a8.19,8.19,0,0,1,2.26.34,6.88,6.88,0,0,1,2.1,1,5.41,5.41,0,0,1,1.55,1.68,5.1,5.1,0,0,1,0,4.83,5.41,5.41,0,0,1-1.55,1.68,6.37,6.37,0,0,1-2.1,1,8.46,8.46,0,0,1-4.52,0,6.37,6.37,0,0,1-2.1-1,5.41,5.41,0,0,1-1.55-1.68,5.1,5.1,0,0,1,0-4.83,5.41,5.41,0,0,1,1.55-1.68,6.88,6.88,0,0,1,2.1-1A8.25,8.25,0,0,1,235.25,222.93Zm0,1.86a4.94,4.94,0,0,0-1.53.24,5,5,0,0,0-1.39.7,3.61,3.61,0,0,0-1,1.13,3.17,3.17,0,0,0,0,3,3.57,3.57,0,0,0,1,1.12,4.55,4.55,0,0,0,1.39.7,4.85,4.85,0,0,0,3.06,0,4.55,4.55,0,0,0,1.39-.7,3.84,3.84,0,0,0,1-1.12,3.17,3.17,0,0,0,0-3,3.74,3.74,0,0,0-1-1.13,5,5,0,0,0-1.39-.7A5.26,5.26,0,0,0,235.25,224.79Z"/><path id="Tracé_2886" data-name="Tracé 2886" class="cls-1" d="M244.94,233.31c.26,0,.38-.12.38-.36v-9.17c0-.24-.13-.36-.38-.36v-.37h3.45v.37c-.11,0-.16.07-.16.2s.13.29.4.56l5.79,6v-6.42c0-.24-.17-.36-.52-.36v-.37h3v.37q-.39,0-.39.36V233q0,.36.39.36v.36h-3.27v-.36c.17,0,.26-.06.26-.18s-.11-.25-.32-.47l-6.16-6.42v6.7c0,.24.15.36.46.36v.37h-3Z"/><path id="Tracé_2887" data-name="Tracé 2887" class="cls-1" d="M259.23,233.31a.61.61,0,0,0,.42-.26,5,5,0,0,0,.29-.5l3.74-7.86.25-.48a1,1,0,0,0,.11-.38.3.3,0,0,0-.14-.29l-.3-.12v-.36H267v.36l-.28.11a.3.3,0,0,0-.14.3.71.71,0,0,0,.07.32,4.05,4.05,0,0,0,.21.42l4.2,8.22a.71.71,0,0,0,.27.32,3,3,0,0,0,.4.2v.37h-3.56v-.37a.36.36,0,0,0,.2-.06.18.18,0,0,0,.12-.18,1.21,1.21,0,0,0-.16-.52l-.76-1.5h-4.94l-.72,1.43a1.63,1.63,0,0,0-.2.61c0,.14.12.22.38.22v.36h-2.87Zm7.61-3.75-1.7-3.76-1.9,3.76Z"/><path id="Tracé_2888" data-name="Tracé 2888" class="cls-1" d="M283.86,234.06c0-.2-.06-.32-.19-.34a2,2,0,0,0-.49-.05h-9.61v-.36q.6,0,.6-.36v-9.17q0-.36-.6-.36v-.37H277v.37c-.37,0-.56.12-.56.36v8h6.7a.93.93,0,0,0,.49-.14.44.44,0,0,0,.19-.39h.37v2.77Z"/></g><g id="Groupe_682" data-name="Groupe 682"><g id="Groupe_681" data-name="Groupe 681"><path id="Tracé_2895" data-name="Tracé 2895" class="cls-1" d="M109.56,229.54a5.5,5.5,0,0,1,1.31-1.45,3.41,3.41,0,0,1,1.45-.48v-.39h-4.09v.39a1.19,1.19,0,0,1,.71.19.5.5,0,0,1,.19.4,5.47,5.47,0,0,1-1.57,3l.35.64C108.34,231.28,108.9,230.51,109.56,229.54Z"/><g id="Groupe_680" data-name="Groupe 680"><path id="Tracé_2898" data-name="Tracé 2898" class="cls-1" d="M104.59,233.5a3.48,3.48,0,0,1-1.28.22,2.85,2.85,0,0,1-2.12-.83,2.92,2.92,0,0,1-.81-2.1,3.42,3.42,0,0,1,.86-2.19,6.36,6.36,0,0,1,2.8-1.77l-.1-.64a13,13,0,0,0-4.06,1.92,4.19,4.19,0,0,0-1.53,3.18,3.27,3.27,0,0,0,1,2.47,3.88,3.88,0,0,0,2.82,1,6.57,6.57,0,0,0,2.24-.36,8.28,8.28,0,0,0,2.13-1.2l-.39-.56A7.58,7.58,0,0,1,104.59,233.5Z"/><path id="Tracé_2899" data-name="Tracé 2899" class="cls-1" d="M112.05,233.14a2.07,2.07,0,0,1-1.55.74c-.93,0-1.79-.67-2.59-2h0l-.35-.63h0a22.3,22.3,0,0,1-1.78-5,6.91,6.91,0,0,0,3.11-1.71,3.1,3.1,0,0,0,.87-2.07,1.93,1.93,0,0,0-.6-1.43,2.33,2.33,0,0,0-1.63-.57,3.41,3.41,0,0,0-2.6,1.19,4.64,4.64,0,0,0-1.08,3.25c0,.19,0,.4,0,.62s0,.47.08.72h0l.1.64h0a18.87,18.87,0,0,0,.87,3.13,13.48,13.48,0,0,0,1.25,2.63h0l.39.56h0a4.61,4.61,0,0,0,1.4,1.2,3.49,3.49,0,0,0,1.68.36,3.22,3.22,0,0,0,1.6-.37,4,4,0,0,0,1.28-1.19Zm-6.55-8.55a6.48,6.48,0,0,1-.06-.77,3.46,3.46,0,0,1,.51-2.1,1.52,1.52,0,0,1,1.23-.63,1.18,1.18,0,0,1,.92.37,1.42,1.42,0,0,1,.35,1,2.67,2.67,0,0,1-.74,1.81,6.23,6.23,0,0,1-2.06,1.25c-.07-.35-.12-.66-.16-.95Z"/></g></g></g><path id="Tracé_2900" data-name="Tracé 2900" class="cls-2" d="M145.82,14.15a1.59,1.59,0,0,1,.38.07c4,2.81,3.63,1.18,2,5.83-4.22,12.14-8.74,24.18-12.81,36.37-4,11.93-5.69,24.33-6.67,36.84a2,2,0,0,0,1.46,2.36h0c7.19,2.73,14.48,5.13,22.21,5.72,4.15.32,8.34-.1,12.5.45,4.6.61,9.16,1.35,13.3,3.62a1.59,1.59,0,0,0,2.16-.48,6,6,0,0,0,1-2c2.59-7.6,5-15.28,7.86-22.77,2.26-5.87,5.13-11.5,7.75-17.23q7.17-15.75,14.36-31.49c.86-1.88.39-3.15-1.39-4A210,210,0,0,0,184.5,16.52a89,89,0,0,0-30.2-4.47c-.5,0-1,.1-1.36-.41-1-1.33-2-2.63-3.29-4.25,3.25.17,6.17.4,9.08.47,10.8.24,21.05,3.32,31.38,6,2.85.73,5.4,2.33,8.07,3.56,5.87,2.67,11.7,5.41,17.57,8.1,1,.47,1.76.93.76,2.1a.69.69,0,0,0-.11.28c-1.33,5.75-4.58,10.6-7.33,15.68-4.19,7.7-7.23,15.91-10.6,24C192.84,80.92,187.9,94.59,183,108.29c-.34.95,0,1.8-.14,2.69-.8,6.33-2.54,12.34-6.34,17.6a9.39,9.39,0,0,1-3.5,3.12c-1.6.76-2.62.42-3.6-1a6.33,6.33,0,0,0-2.82-2c-5.17-2.45-10.69-3.84-16.23-5.17-5.1-1.23-10.37-1.48-15.46-2.73a24.37,24.37,0,0,1-9.9-4.53,4.56,4.56,0,0,1-1.89-4.28,312.4,312.4,0,0,1,7.45-49.44A158.56,158.56,0,0,1,139,37.67c3.11-7.59,6.1-15.18,6.83-23.52m-20.25,93.28c-.12,5.17-.75,5.72,6.09,8.84a34.51,34.51,0,0,0,9.6,2.35,103.32,103.32,0,0,1,24.34,6.06,18.17,18.17,0,0,1,5.52,3.16c1.23,1.11,2.2,1.07,3-.35,2.81-5,5.36-10.15,6.11-16a2,2,0,0,0-1.3-2.44c-5.37-2.32-10.78-4.28-16.8-4.35a81.51,81.51,0,0,1-12.78-.65c-7.19-1.24-14.2-3-20.63-6.65-1.68-1-2.18-.6-2.44,1.33a81.25,81.25,0,0,0-.7,8.67"/><g id="Groupe_683" data-name="Groupe 683"><path id="Tracé_2901" data-name="Tracé 2901" class="cls-3" d="M159.25,31.57l-.36,1c-6.72,19.28-13.48,38.55-20.13,57.86-.57,1.68-1.33,1.17-2.42.91-1.39-.33-.85-1.06-.61-1.86,2.13-7.37,4.28-14.73,6.76-22,4.26-12.5,9-24.82,13.6-37.21.15-.39,0-1.2.77-1.07.48.09,1,.35.91,1.15-.1.55.54.47.87.65s.64.11.61.52"/><path id="Tracé_2902" data-name="Tracé 2902" class="cls-4" d="M169.84,96a2.27,2.27,0,0,1-2.44-2.09,2,2,0,0,1,0-.55c.46-2,1-3.94,1.31-5.93,1-5.6,3.57-10.54,6.29-15.45,7.4-13.39,14.32-27,19.65-41.39.15-.38.12-1,.71-1,.39,0,.73.65.92.74,2.17,1,.75,2.36.38,3.51A135.93,135.93,0,0,1,184.77,60a134.18,134.18,0,0,0-14.43,34.79c-.11.45-.09,1-.5,1.18"/><path id="Tracé_2903" data-name="Tracé 2903" class="cls-5" d="M176.34,31.77c-.77,2.42-1.49,5-2.38,7.45C169.8,51,167,63.11,162.7,74.81c-2.6,7.16-5.15,14.34-7.24,21.68a2.78,2.78,0,0,1-2.67,1.3c-.6-.24-.22-.7-.17-1a49.8,49.8,0,0,1,2.28-9.48c3.26-9,6.31-18.13,9.07-27.33,1.73-5.74,4.49-11.12,6.16-16.89A110.88,110.88,0,0,0,173,31.4c.25-1.44,1.54-1.12,2.4-1.24.5-.07,1,.72.92,1.61"/></g><path id="Tracé_2905" data-name="Tracé 2905" class="cls-6" d="M143.68,171.54c0-.2,0-.41,0-.61-.06-1.08.07-1.63,1.47-1.19a6.34,6.34,0,0,0,5.11-.91,15.49,15.49,0,0,0,5.73-5.35c4.1-6.58,6.21-13.88,7.83-21.36.38-1.74.79-3.47,1.18-5.2.06-.25.09-.5.16-.75.16-.57-.9-1.15-.13-1.62a11.47,11.47,0,0,1,3.67-1.78c.84-.17.85,1,.71,1.75a79.24,79.24,0,0,1-3.56,12.92,138.45,138.45,0,0,1-6.82,15.3A20.64,20.64,0,0,1,147,173.06a5.83,5.83,0,0,1-1.48.31c-1.87.15-2,0-1.82-1.83"/><path id="Tracé_2907" data-name="Tracé 2907" class="cls-7" d="M124.59,130c1.26-2.91,3.64-3.54,6.5-3.27a15.61,15.61,0,0,1,7.07,2.55c1.34.87,2.19,1.89,1.82,3.6a13.34,13.34,0,0,0-.13,1.89c-4.29-4.38-9.25-6.15-15.26-4.77"/><path id="Tracé_2908" data-name="Tracé 2908" class="cls-8" d="M145.58,138.55c.33-1.08.65-2.14.95-3.2a1.54,1.54,0,0,1,1.22-1A11,11,0,0,1,158.13,136c1.28,1,1.47,1.56,1.89,4.44-4.37-3.75-9.15-4.38-14.44-1.92"/><path id="Tracé_2909" data-name="Tracé 2909" class="cls-9" d="M143.64,158.05c-.7,3.32-1.94,4-5.14,3.48a12.32,12.32,0,0,1-8.08-4.92,5.16,5.16,0,0,1-.68-1.18c-.23-.55.26-.85.58-1.12.47-.39.55.17.74.4a10.06,10.06,0,0,0,9.13,3.75c1.1-.08,2.2-.26,3.45-.41"/><path id="Tracé_2910" data-name="Tracé 2910" class="cls-10" d="M134.49,137.31a1.71,1.71,0,0,1-1.81,1.61,1.59,1.59,0,0,1-.38-.07c-1.1-.35-2.23-.63-3.32-1-.33-.13-1.08-.28-.71-.89s.22-1.48,1.21-1.25c1.53.35,3,.77,4.55,1.18.22.06.53.06.46.45"/><path id="Tracé_2911" data-name="Tracé 2911" class="cls-11" d="M154.08,144c0,.89-1,1.52-2.11,1.06l-2-.78c-.52-.21-1.3-.21-.93-1.16.29-.72.48-1.45,1.58-1a26.29,26.29,0,0,0,2.73.88c.31.1.74.09.7,1"/><path id="Tracé_2904" data-name="Tracé 2904" class="cls-12" d="M124,191.62a37.72,37.72,0,0,1,4.3-9.21c1.35-1.95,2.91-3.68,5.3-4.37,2.6-.75,4.23.55,4,3.23a7.46,7.46,0,0,1-2.35,4.67,25.79,25.79,0,0,1-7.45,5.21,1.64,1.64,0,0,0-1.07,1.75,28.94,28.94,0,0,0,.4,5c1.44,6.8,4.1,9.39,10.48,10.19l1.07.13c-4.5,5.82-9.93,5-12.71.14a19.16,19.16,0,0,1-2.56-11.7c.11-1.11.19-2.23.28-3.34Zm3.18-1.63c2.75-1.57,5.05-3.13,6.15-5.9.42-1.06,1-2.5-.13-3.21s-2.12.56-2.83,1.45c-1.72,2.14-2.48,4.71-3.2,7.66"/><path id="Tracé_2906" data-name="Tracé 2906" class="cls-13" d="M124,191.62l-.26,1.7c-3.16,2.59-5.84,5.5-6.71,9.69a8.19,8.19,0,0,0-.16,2.42c.2,1.93,1.24,2.76,3.16,2.57l2.82-.24c-2,2.22-4,3.89-6.92,3.63a4.07,4.07,0,0,1-4-3.54,10.28,10.28,0,0,1,2.32-8.53c2.64-3.33,6.1-5.62,9.73-7.7"/><g id="Groupe_685" data-name="Groupe 685"><path id="Tracé_2912" data-name="Tracé 2912" class="cls-1" d="M29.39,204.23a4.48,4.48,0,0,1-4.87-4.06,4.7,4.7,0,0,1,0-.75V188.85h-2v-2.57h2v-3.93l4-1.12v5.05h2.9v2.57h-2.9v10.37c0,1.39.56,2.31,1.94,2.31a3.12,3.12,0,0,0,1-.16v2.5A5.31,5.31,0,0,1,29.39,204.23Z"/><path id="Tracé_2913" data-name="Tracé 2913" class="cls-1" d="M41.19,204.37c-4.85,0-7.25-2-7.25-5.4,0-4.68,4.51-6,9.92-6.56v-1c0-2.3-1.45-2.93-3.53-2.93a10.77,10.77,0,0,0-4.45,1.09L35,187.3a14.14,14.14,0,0,1,6.1-1.35c3.66,0,6.56,1.55,6.56,6.13v11A14.14,14.14,0,0,1,41.19,204.37Zm2.67-10.05c-3.79.46-6.13,1.28-6.13,4.51,0,2.31,1.38,3.3,3.72,3.3a5.65,5.65,0,0,0,2.4-.5Z"/><path id="Tracé_2914" data-name="Tracé 2914" class="cls-1" d="M57.76,204.37a11.3,11.3,0,0,1-5.87-1.29V178.17h4v8.6a7.4,7.4,0,0,1,3.49-.72c4.12,0,7,3.39,7,8.7C66.36,200.71,63.29,204.37,57.76,204.37Zm.53-16a4.68,4.68,0,0,0-2.41.53v12.62a5.29,5.29,0,0,0,2,.36c3.17,0,4.45-2.7,4.45-6.92C62.37,191.28,61.32,188.38,58.29,188.38Z"/><path id="Tracé_2915" data-name="Tracé 2915" class="cls-1" d="M70.14,204V178.17h4V204Z"/><path id="Tracé_2916" data-name="Tracé 2916" class="cls-1" d="M81.78,196.63c.33,3.29,1.91,4.94,4.84,4.94a9.78,9.78,0,0,0,4.48-1l1,2.54a12.17,12.17,0,0,1-5.87,1.25c-5,0-8.24-3.27-8.24-9.26,0-5.8,2.94-9.16,7.58-9.16s7.28,3.13,7.12,9.09Zm3.62-8.2c-2.34,0-4,1.91-3.86,6.16l7.35-1.12c0-3.6-1.28-5.05-3.49-5.05Z"/><path id="Tracé_2917" data-name="Tracé 2917" class="cls-1" d="M100,204.33a9,9,0,0,1-4.91-1.28l1-2.57a5.51,5.51,0,0,0,3.33,1,2.5,2.5,0,0,0,2.72-2.27,1.64,1.64,0,0,0,0-.23c0-1.52-.79-2.24-2.6-2.93-3.36-1.29-4.06-3.13-4.06-5,0-2.83,2.24-5.14,5.64-5.14a8.18,8.18,0,0,1,4.61,1.25l-1,2.34a4.74,4.74,0,0,0-2.83-1,2.33,2.33,0,0,0-2.53,2.1,1.93,1.93,0,0,0,0,.24c0,1.45,1.09,2.18,2.64,2.8,3.46,1.39,4.25,3.17,4.25,5.24C106.35,201.83,103.92,204.33,100,204.33Z"/></g><g id="Groupe_686" data-name="Groupe 686"><path id="Tracé_2918" data-name="Tracé 2918" class="cls-1" d="M149.75,204.37c-4.85,0-7.25-2-7.25-5.4,0-4.68,4.51-6,9.92-6.56v-1c0-2.3-1.45-2.93-3.53-2.93a10.77,10.77,0,0,0-4.45,1.09l-.92-2.31a14.14,14.14,0,0,1,6.1-1.35c3.66,0,6.56,1.55,6.56,6.13v11A14.14,14.14,0,0,1,149.75,204.37Zm2.67-10.05c-3.79.46-6.13,1.28-6.13,4.51,0,2.31,1.38,3.3,3.72,3.3a5.65,5.65,0,0,0,2.4-.5Z"/><path id="Tracé_2919" data-name="Tracé 2919" class="cls-1" d="M167.34,204.4c-4.74,0-6.89-2.08-6.89-6V186.28h4v12.35a2.75,2.75,0,0,0,2.48,3,2.26,2.26,0,0,0,.52,0,5.15,5.15,0,0,0,2.67-.59V186.28h4V203A14.61,14.61,0,0,1,167.34,204.4Z"/><path id="Tracé_2920" data-name="Tracé 2920" class="cls-1" d="M184.31,204.37a11.28,11.28,0,0,1-5.87-1.29V178.17h4v8.6a7.4,7.4,0,0,1,3.49-.72c4.12,0,7,3.39,7,8.7C192.91,200.71,189.84,204.37,184.31,204.37Zm.52-16a4.67,4.67,0,0,0-2.4.53v12.62a5.31,5.31,0,0,0,2,.36c3.16,0,4.44-2.7,4.44-6.92C188.92,191.28,187.86,188.38,184.83,188.38Z"/><path id="Tracé_2921" data-name="Tracé 2921" class="cls-1" d="M199.69,196.63c.33,3.29,1.92,4.94,4.85,4.94a9.78,9.78,0,0,0,4.48-1l.95,2.54a12.13,12.13,0,0,1-5.86,1.25c-5,0-8.24-3.27-8.24-9.26,0-5.8,2.93-9.16,7.58-9.16s7.28,3.13,7.12,9.09Zm3.63-8.2c-2.34,0-4,1.91-3.86,6.16l7.35-1.12c0-3.6-1.29-5.05-3.49-5.05Z"/><path id="Tracé_2922" data-name="Tracé 2922" class="cls-1" d="M222,188.91a4.88,4.88,0,0,0-3.75.13v15h-4V187.23c1.85-.89,4.09-1.39,8.57-1.25Z"/><path id="Tracé_2923" data-name="Tracé 2923" class="cls-1" d="M231.32,211.48a12.68,12.68,0,0,1-6.06-1.25l1.12-2.64a9.26,9.26,0,0,0,4.25,1.06c3,0,4.08-1.62,4.08-4v-1.12a6.93,6.93,0,0,1-3.33.66c-4.25,0-7.15-3.3-7.15-8.67,0-5.76,2.87-9.58,8.6-9.58a11.11,11.11,0,0,1,5.77,1.28V204.3C238.6,209,235.73,211.48,231.32,211.48Zm3.39-22.77a4.33,4.33,0,0,0-2.07-.4c-3.13,0-4.42,2.57-4.42,7s1.25,6.53,4.22,6.53a4.6,4.6,0,0,0,2.27-.56Z"/><path id="Tracé_2924" data-name="Tracé 2924" class="cls-1" d="M246.05,196.63c.33,3.29,1.91,4.94,4.84,4.94a9.78,9.78,0,0,0,4.48-1l1,2.54a12.17,12.17,0,0,1-5.87,1.25c-5,0-8.24-3.27-8.24-9.26,0-5.8,2.94-9.16,7.58-9.16s7.29,3.13,7.12,9.09Zm3.62-8.2c-2.34,0-3.95,1.91-3.86,6.16l7.35-1.12c0-3.6-1.28-5.05-3.49-5.05Z"/><path id="Tracé_2925" data-name="Tracé 2925" class="cls-1" d="M264.3,204.33a9,9,0,0,1-4.91-1.28l1.05-2.57a5.51,5.51,0,0,0,3.33,1,2.5,2.5,0,0,0,2.72-2.27,1.69,1.69,0,0,0,0-.23c0-1.52-.79-2.24-2.6-2.93-3.36-1.29-4-3.13-4-5,0-2.83,2.24-5.14,5.64-5.14a8.18,8.18,0,0,1,4.61,1.25l-1,2.34a4.77,4.77,0,0,0-2.83-1,2.33,2.33,0,0,0-2.53,2.1,1.93,1.93,0,0,0,0,.24c0,1.45,1.09,2.18,2.64,2.8,3.46,1.39,4.25,3.17,4.25,5.24C270.62,201.83,268.18,204.33,264.3,204.33Z"/></g></g></svg>