<svg xmlns="http://www.w3.org/2000/svg" xmlns:xlink="http://www.w3.org/1999/xlink" width="490" zoomAndPan="magnify" viewBox="0 0 367.5 368.250002" height="491" preserveAspectRatio="xMidYMid meet" version="1.0"><defs><g/><clipPath id="0820333602"><path d="M 0.125 0 L 366.878906 0 L 366.878906 367.5 L 0.125 367.5 Z M 0.125 0 " clip-rule="nonzero"/></clipPath><clipPath id="370496b907"><path d="M 186.472656 101.296875 L 216.335938 101.296875 L 216.335938 131.160156 L 186.472656 131.160156 Z M 186.472656 101.296875 " clip-rule="nonzero"/></clipPath><clipPath id="e5631efcdd"><path d="M 201.402344 101.296875 C 193.15625 101.296875 186.472656 107.984375 186.472656 116.230469 C 186.472656 124.476562 193.15625 131.160156 201.402344 131.160156 C 209.648438 131.160156 216.335938 124.476562 216.335938 116.230469 C 216.335938 107.984375 209.648438 101.296875 201.402344 101.296875 Z M 201.402344 101.296875 " clip-rule="nonzero"/></clipPath></defs><g clip-path="url(#0820333602)"><path fill="#ffffff" d="M 0.125 0 L 366.878906 0 L 366.878906 367.5 L 0.125 367.5 Z M 0.125 0 " fill-opacity="1" fill-rule="nonzero"/></g><g fill="#131313" fill-opacity="1"><g transform="translate(257.755593, 114.149672)"><g><path d="M -1.828125 0 L -58.484375 142.640625 L -90.265625 142.640625 L -146.921875 0 L -112.28125 0 L -102.703125 24.65625 L -46.046875 24.65625 L -36.46875 0 Z M -54.40625 50.125 L -94.546875 50.125 L -74.375 102.296875 Z M -54.40625 50.125 "/></g></g></g><path stroke-linecap="butt" transform="matrix(0.22206, -0.714776, 0.714776, 0.22206, 175.857659, 183.847701)" fill="none" stroke-linejoin="miter" d="M -0.000846058 4.500356 L 143.258709 4.500695 " stroke="#000000" stroke-width="9" stroke-opacity="1" stroke-miterlimit="4"/><g clip-path="url(#370496b907)"><g clip-path="url(#e5631efcdd)"><path fill="#000000" d="M 186.472656 101.296875 L 216.335938 101.296875 L 216.335938 131.160156 L 186.472656 131.160156 Z M 186.472656 101.296875 " fill-opacity="1" fill-rule="nonzero"/></g></g></svg>